<?xml version="1.0" encoding="UTF-8" standalone="no"?>
<svg
   viewBox="0 0 376.41 134"
   version="1.1"
   id="svg51"
   sodipodi:docname="chanzero.svg"
   inkscape:version="1.1.1 (3bf5ae0d25, 2021-09-20)"
   xmlns:inkscape="http://www.inkscape.org/namespaces/inkscape"
   xmlns:sodipodi="http://sodipodi.sourceforge.net/DTD/sodipodi-0.dtd"
   xmlns="http://www.w3.org/2000/svg"
   xmlns:svg="http://www.w3.org/2000/svg">
  <defs
     id="defs55" />
  <sodipodi:namedview
     id="namedview53"
     pagecolor="#ffffff"
     bordercolor="#666666"
     borderopacity="1.0"
     inkscape:pageshadow="2"
     inkscape:pageopacity="0.0"
     inkscape:pagecheckerboard="0"
     showgrid="false"
     inkscape:zoom="3.2066929"
     inkscape:cx="154.52057"
     inkscape:cy="91.21547"
     inkscape:window-width="1920"
     inkscape:window-height="1017"
     inkscape:window-x="-8"
     inkscape:window-y="-8"
     inkscape:window-maximized="1"
     inkscape:current-layer="Layer_1-2" />
  <g
     id="Layer_2"
     data-name="Layer 2">
    <g
       id="Layer_1-2"
       data-name="Layer 1">
      <path
         d="M 103.15792,50.27711 V 90.931774 H 93.400798 V 73.856824 H 75.512739 v 17.07495 H 65.755616 V 50.27711 h 9.757123 V 66.538982 H 93.400798 V 50.27711 Z"
         id="path33"
         style="stroke-width:0.813093" />
      <path
         d="M 139.99107,81.987749 H 120.6069 l -3.69144,8.944025 H 107.6218 L 125.74566,50.27711 h 9.28553 l 18.18078,40.654664 h -9.52133 z m -3.17921,-6.504738 -6.50474,-15.652051 -6.50476,15.652051 z"
         id="path35"
         style="stroke-width:0.813093" />
      <path
         d="m 195.0375,50.27711 v 40.654664 h -8.94403 L 166.57922,66.246268 v 24.685506 h -8.94403 V 50.27711 h 9.00094 l 19.44921,24.685521 V 50.27711 Z"
         id="path37"
         style="stroke-width:0.813093" />
      <path
         d="m 329.5313,13.419579 a 54.550446,54.550446 0 0 0 -56.91656,30.352782 h 9.22049 a 46.346332,46.346332 0 1 1 4.6509,53.664173 H 276.34685 A 54.477268,54.477268 0 0 0 375.64183,59.424412 C 372.52769,37.454625 351.52549,16.501204 329.5313,13.419579 Z"
         id="path39"
         style="stroke-width:0.813093" />
      <path
         d="m 235.69217,82.800844 v 8.13093 H 199.91605 V 84.727875 L 222.42248,57.594953 H 200.72915 V 50.27711 h 34.14993 v 6.016892 l -20.75016,26.506842 z"
         id="path41"
         style="stroke-width:0.813093" />
      <path
         d="m 269.8421,83.613939 v 7.317835 H 238.13145 V 50.27711 H 269.029 v 7.317843 h -21.14042 v 8.944029 h 18.70115 v 7.317842 h -18.70115 v 9.757115 z"
         id="path43"
         style="stroke-width:0.813093" />
      <path
         d="M 299.43058,90.931774 291.5517,79.548478 h -8.7001 v 11.383296 h -9.75712 V 50.27711 h 18.25395 a 24.254581,24.254581 0 0 1 9.75711,1.796937 14.351102,14.351102 0 0 1 6.35027,5.114358 13.700626,13.700626 0 0 1 2.23601,7.838222 13.448568,13.448568 0 0 1 -2.26041,7.813829 14.212875,14.212875 0 0 1 -6.4153,5.02491 l 9.42375,13.066408 z m -2.00021,-30.734922 q -2.14658,-1.788806 -6.28521,-1.788806 h -7.48047 v 13.822591 h 7.48047 q 4.13051,0 6.28521,-1.813199 a 6.2933442,6.2933442 0 0 0 2.1547,-5.098097 6.2608204,6.2608204 0 0 0 -2.1547,-5.122489 z"
         id="path45"
         style="stroke-width:0.813093" />
      <path
         d="M 52.282662,120.1381 A 54.477268,54.477268 0 0 0 100.30396,95.810344 H 90.148419 a 46.346332,46.346332 0 1 1 4.650903,-53.664169 h 9.220488 A 54.477268,54.477268 0 1 0 52.282662,120.1381 Z"
         id="path47"
         style="stroke-width:0.813093" />
    </g>
  </g>
</svg>
